<mxfile host="app.diagrams.net" modified="2023-11-28T19:09:42.510Z" agent="Mozilla/5.0 (Windows NT 10.0; Win64; x64) AppleWebKit/537.36 (KHTML, like Gecko) Chrome/119.0.0.0 Safari/537.36 Edg/119.0.0.0" version="22.1.4" etag="oKHTZ-V7b_yzFxc7h2CX" type="github">
  <diagram name="Page-1" id="Umbs-W_zSmibQj5C4dEB">
    <mxGraphModel>
      <root>
        <mxCell id="0" />
        <mxCell id="1" parent="0" />
      </root>
    </mxGraphModel>
  </diagram>
</mxfile>
